<?xml version="1.0" encoding="utf-8"?>
<!-- Generator: Adobe Illustrator 22.0.0, SVG Export Plug-In . SVG Version: 6.00 Build 0)  -->
<svg version="1.1" id="图层_1" xmlns="http://www.w3.org/2000/svg" xmlns:xlink="http://www.w3.org/1999/xlink" x="0px" y="0px"
	 width="196.8px" height="31.4px" viewBox="0 0 196.8 31.4" style="enable-background:new 0 0 196.8 31.4;" xml:space="preserve">
<style type="text/css">
	.st0{stroke:#000000;stroke-width:0.5;stroke-miterlimit:10;}
</style>
<path class="st0" d="M14.9,8.9l-2,6.6h2.2c1,0,1.7-0.2,2.2-0.5c0.5-0.3,1-0.9,1.5-1.9h0.5l-1.7,6H17c0.1-0.5,0.2-0.9,0.2-1.2
	c0-0.5-0.2-0.9-0.5-1.2c-0.3-0.3-0.9-0.4-1.8-0.4h-2.2l-1.4,5c-0.3,0.9-0.4,1.5-0.4,1.8c0,0.3,0.1,0.5,0.3,0.7
	c0.2,0.2,0.8,0.3,1.6,0.3l-0.1,0.5H6.1l0.2-0.5c0.6,0,1.1-0.1,1.3-0.2c0.3-0.1,0.6-0.3,0.7-0.6c0.2-0.3,0.5-1,0.8-2.1l2.9-10
	c0.2-0.8,0.4-1.4,0.4-1.9c0-0.2-0.1-0.4-0.2-0.5c-0.1-0.2-0.3-0.3-0.5-0.3c-0.2-0.1-0.6-0.1-1.2-0.1L10.6,8h12.8l-1.2,4.2h-0.5
	c0.1-0.5,0.1-0.9,0.1-1.2c0-0.5-0.1-1-0.4-1.3c-0.3-0.3-0.7-0.5-1.1-0.7c-0.3-0.1-1.1-0.1-2.2-0.1H14.9z"/>
<path class="st0" d="M33.8,13.8L31.7,21c-0.3,1.1-0.5,1.8-0.5,2.1c0,0.1,0,0.3,0.1,0.3c0.1,0.1,0.1,0.1,0.2,0.1
	c0.1,0,0.3-0.1,0.5-0.2c0.2-0.1,0.6-0.6,1.3-1.5l0.4,0.3c-0.6,1-1.3,1.8-2,2.2c-0.4,0.3-0.9,0.5-1.3,0.5c-0.3,0-0.6-0.1-0.7-0.3
	c-0.2-0.2-0.3-0.4-0.3-0.7c0-0.3,0.1-0.6,0.2-1.1c0.1-0.6,0.5-1.9,1.1-3.9c-1.4,2.3-2.5,3.8-3.5,4.7c-0.9,0.9-1.8,1.3-2.6,1.3
	c-0.4,0-0.7-0.1-1-0.4c-0.3-0.3-0.4-0.6-0.4-1c0-0.6,0.2-1.5,0.5-2.8l1.1-3.8c0.3-0.9,0.4-1.5,0.4-1.7c0-0.1,0-0.2-0.1-0.3
	c-0.1-0.1-0.1-0.1-0.2-0.1c-0.2,0-0.3,0.1-0.5,0.2s-0.6,0.6-1.2,1.4l-0.4-0.3c0.6-0.9,1.3-1.6,1.9-2.1c0.5-0.3,1-0.5,1.4-0.5
	c0.3,0,0.5,0.1,0.7,0.3c0.2,0.2,0.3,0.4,0.3,0.7c0,0.4-0.2,1.2-0.5,2.4l-1.1,3.9c-0.3,1.1-0.5,1.8-0.5,2c0,0.2,0.1,0.3,0.2,0.4
	c0.1,0.1,0.2,0.1,0.4,0.1c0.3,0,0.6-0.1,1-0.4c0.4-0.3,1-0.9,1.7-1.8c0.7-0.9,1.3-1.8,1.8-2.6c0.5-0.8,1-2.1,1.5-3.9l0.3-0.9H33.8z"
	/>
<path class="st0" d="M49.5,15.7l3.1-4.4c0.8-1.1,1.2-1.9,1.2-2.2c0-0.2-0.1-0.3-0.3-0.4c-0.2-0.1-0.7-0.2-1.5-0.3L52.2,8h5.2
	l-0.1,0.5c-0.5,0.1-0.9,0.1-1,0.2c-0.3,0.1-0.6,0.3-0.9,0.6c-0.4,0.3-0.9,1-1.7,2l-4.1,5.6l-1.2,4.1c-0.3,1-0.5,1.7-0.5,2.1
	c0,0.3,0,0.4,0.1,0.6c0.1,0.1,0.3,0.2,0.5,0.3c0.3,0.1,0.8,0.2,1.4,0.2L50,24.5h-7l0.1-0.5c0.7,0,1.2-0.1,1.4-0.2
	c0.4-0.1,0.6-0.3,0.8-0.6c0.3-0.4,0.6-1,0.9-2l1.5-4.8l-1.8-5.7c-0.3-1-0.6-1.6-0.9-1.9c-0.3-0.2-0.7-0.4-1.4-0.5L43.8,8h6.1
	l-0.1,0.5c-0.8,0.1-1.2,0.1-1.3,0.1c-0.2,0.1-0.3,0.2-0.4,0.3c-0.1,0.2-0.2,0.4-0.2,0.6c0,0.3,0.1,0.9,0.4,1.7L49.5,15.7z"/>
<path class="st0" d="M64.1,13.5l-2.4,8.3l-0.3,1.1c0,0.1,0,0.2,0,0.3c0,0.1,0,0.2,0.1,0.3c0.1,0.1,0.1,0.1,0.2,0.1
	c0.1,0,0.2-0.1,0.4-0.2c0.3-0.2,0.7-0.7,1.3-1.5l0.4,0.3c-0.6,0.8-1.1,1.5-1.7,1.9c-0.6,0.4-1.1,0.7-1.6,0.7c-0.4,0-0.6-0.1-0.8-0.3
	c-0.2-0.2-0.3-0.4-0.3-0.8c0-0.4,0.1-0.9,0.3-1.6l0.3-0.9c-1.1,1.4-2,2.4-2.9,2.9c-0.6,0.4-1.3,0.6-1.9,0.6c-0.6,0-1.1-0.2-1.5-0.7
	c-0.4-0.5-0.6-1.2-0.6-2c0-1.3,0.4-2.7,1.2-4.1c0.8-1.4,1.8-2.6,3-3.4c0.9-0.7,1.8-1,2.6-1c0.5,0,0.9,0.1,1.2,0.4
	c0.3,0.3,0.6,0.7,0.8,1.3l0.4-1.4L64.1,13.5z M59.8,14.1c-0.5,0-1.1,0.2-1.7,0.7c-0.8,0.7-1.6,1.7-2.2,3.1c-0.6,1.4-1,2.6-1,3.7
	c0,0.6,0.1,1,0.4,1.3c0.3,0.3,0.6,0.5,1,0.5c0.9,0,1.9-0.7,2.9-2c1.4-1.7,2.1-3.5,2.1-5.4c0-0.7-0.1-1.2-0.4-1.5
	C60.6,14.3,60.2,14.1,59.8,14.1z"/>
<path class="st0" d="M70.4,13.5L68.8,19c1.5-2.3,2.7-3.8,3.5-4.5c0.8-0.7,1.6-1.1,2.3-1.1c0.4,0,0.7,0.1,1,0.4
	c0.3,0.3,0.4,0.6,0.4,1c0,0.5-0.1,1.1-0.4,2L74.2,22c-0.2,0.6-0.3,1-0.3,1.1c0,0.1,0,0.2,0.1,0.3c0.1,0.1,0.1,0.1,0.2,0.1
	c0.1,0,0.2-0.1,0.4-0.2c0.4-0.3,0.9-0.9,1.4-1.6l0.4,0.2c-0.8,1.1-1.5,1.9-2.1,2.3c-0.5,0.3-0.9,0.5-1.3,0.5c-0.3,0-0.5-0.1-0.7-0.3
	C72,24.4,72,24.1,72,23.8c0-0.4,0.1-1.1,0.4-2l1.4-4.9c0.2-0.6,0.3-1.1,0.3-1.4c0-0.2-0.1-0.3-0.2-0.4c-0.1-0.1-0.2-0.2-0.4-0.2
	c-0.2,0-0.5,0.1-0.8,0.3c-0.6,0.4-1.2,1-1.9,1.8c-0.7,0.8-1.3,1.9-2.1,3.2c-0.4,0.7-0.7,1.4-1,2.3l-0.6,2h-1.8l2.2-7.6
	c0.3-0.9,0.4-1.5,0.4-1.7c0-0.2-0.1-0.3-0.2-0.5c-0.1-0.1-0.3-0.2-0.5-0.2c-0.1,0-0.3,0-0.5,0l-0.5,0.1l-0.1-0.4L70.4,13.5z"/>
</svg>
