<?xml version="1.0" encoding="utf-8"?>
<!-- Generator: Adobe Illustrator 22.0.0, SVG Export Plug-In . SVG Version: 6.00 Build 0)  -->
<svg version="1.1" id="图层_1" xmlns="http://www.w3.org/2000/svg" xmlns:xlink="http://www.w3.org/1999/xlink" x="0px" y="0px"
	 width="1600.1px" height="456.3px" viewBox="0 0 1600.1 456.3" style="enable-background:new 0 0 1600.1 456.3;"
	 xml:space="preserve">
<style type="text/css">
	.st0{fill:#BFECFF;}
	.st1{opacity:0.2;fill:#BFECFF;}
</style>
<g>
	<rect id="Rectangle_582" x="0.1" class="st0" width="1600" height="456"/>
	<path id="Path_29803" class="st1" d="M0.4,456.3c9.1-6.3,17.5-13.7,24.9-22c70.7-79.3,129.4-74.2,188-31S427.1,423.9,394.3,248
		S509.9,137.6,549.6,77.3c19-29,21.7-55.2,16.9-77.3H0C0,0,0.1,456.1,0.4,456.3z"/>
	<path id="Path_29802" class="st1" d="M1599.6,2.9c-42.5-5.2-138.9-9.7-198.9,46.8c-78.4,74.3-143.5,69.4-208.5,29.1
		c-65-40.4-237.2-19.4-200.9,145.3c36.3,164.7-128.2,103.3-172.2,159.9c-21,27.1-24.1,51.7-18.7,72.3h799.2V2.9z"/>
</g>
</svg>
